<?xml version="1.0" encoding="UTF-8"?>
<svg width="214px" height="74px" viewBox="0 0 214 74" version="1.1" xmlns="http://www.w3.org/2000/svg" xmlns:xlink="http://www.w3.org/1999/xlink">
    <!-- Generator: Sketch 51 (57462) - http://www.bohemiancoding.com/sketch -->
    <title>Group</title>
    <desc>Created with Sketch.</desc>
    <defs></defs>
    <g id="Page-1" stroke="none" stroke-width="1" fill="none" fill-rule="evenodd">
        <g id="Group">
            <rect id="Rectangle-path" fill-opacity="0" fill="#000000" fill-rule="nonzero" x="0.05" y="0" width="212.978" height="74"></rect>
            <path d="M102.8,45 L102.8,31.91 C104.175,32.075 106.265,32.075 107.09,32.075 C116,32.075 121.335,26.025 121.335,19.15 C121.335,12.495 117.485,6.39 105.77,6.39 C102.8,6.39 96.145,6.5 94,6.5 L94,45 L102.8,45 Z M106.65,14.64 C109.785,14.64 111.985,15.685 111.985,19.095 C111.985,22.835 109.125,23.825 106.815,23.825 C105.55,23.825 104.065,23.715 102.8,23.55 L102.8,14.75 C104.615,14.695 105.495,14.64 106.65,14.64 Z" id="Shape" fill="#10212D" fill-rule="nonzero"></path>
            <path d="M123.926,45 L134.156,45 C142.846,45 146.036,39.83 146.036,34.935 C146.036,30.535 143.451,26.025 134.761,26.025 L132.176,26.025 L132.176,20.25 L123.926,20.25 L123.926,45 Z M148.401,45 L156.651,45 L156.651,20.25 L148.401,20.25 L148.401,45 Z M134.046,32.625 C136.301,32.625 137.236,33.67 137.236,35.265 C137.236,36.86 136.191,37.85 133.991,37.85 L132.176,37.85 L132.176,32.625 L134.046,32.625 Z" id="Shape" fill="#10212D" fill-rule="nonzero"></path>
            <path d="M180.745,5.84 C178.16,8.535 175.575,7.655 170.57,9.855 C163.31,13.045 161.055,20.8 161.055,29.765 C161.055,39.445 166.115,45.66 174.75,45.66 C182.89,45.66 187.95,39.775 187.95,32.845 C187.95,25.42 183.495,20.8 177.005,20.8 C173.87,20.8 170.845,22.395 169.415,24.265 L169.305,24.265 C169.69,21.185 171.12,19.04 173.595,17.72 C177.775,15.52 181.515,16.4 185.035,12.66 L180.745,5.84 Z M169.855,31.525 C170.735,29.6 172.55,28.5 174.86,28.5 C177.775,28.5 179.15,30.7 179.15,33.23 C179.15,35.76 177.665,37.96 174.53,37.96 C171.395,37.96 169.91,34.715 169.855,31.525 Z" id="Shape" fill="#10212D" fill-rule="nonzero"></path>
            <path d="M195.262,28.005 C196.802,27.4 198.672,26.465 201.587,26.465 C203.787,26.465 205.162,27.73 204.997,30.7 C204.227,30.095 202.357,29.325 200.157,29.325 C195.262,29.325 191.247,31.91 191.247,37.52 C191.247,42.525 194.602,45.33 199.057,45.33 C201.752,45.33 204.337,44.45 205.547,42.745 L205.547,45 L212.697,45 L212.697,30.095 C212.697,23.385 209.947,19.59 202.412,19.59 C198.947,19.59 195.207,20.8 193.227,22.01 L195.262,28.005 Z M201.862,38.455 C200.487,38.455 199.497,37.795 199.497,36.695 C199.497,35.485 200.487,34.825 201.862,34.825 C203.237,34.825 204.227,35.1 204.997,35.65 L204.997,37.19 C204.502,37.85 203.512,38.455 201.862,38.455 Z" id="Shape" fill="#10212D" fill-rule="nonzero"></path>
            <path d="M94.408,67.986 C94.982,68.028 96.242,68.056 97.138,68.056 C99.21,68.056 100.778,67.132 100.778,65.116 C100.778,63.814 100.022,63.072 99.056,62.834 L99.056,62.806 C99.896,62.414 100.456,61.7 100.456,60.58 C100.456,59.222 99.574,58.158 97.236,58.158 C96.256,58.158 94.954,58.2 94.408,58.228 L94.408,67.986 Z M97.348,63.786 C98.426,63.786 99.056,64.206 99.056,65.032 C99.056,65.956 98.426,66.446 97.264,66.446 C96.774,66.446 96.368,66.404 96.13,66.376 L96.13,63.786 L97.348,63.786 Z M97.208,59.768 C98.132,59.768 98.748,60.188 98.748,60.986 C98.748,61.882 98.09,62.288 97.292,62.288 L96.13,62.288 L96.13,59.81 C96.438,59.782 96.816,59.768 97.208,59.768 Z" id="Shape" fill="#344150" fill-rule="nonzero"></path>
            <polygon id="Shape" fill="#344150" fill-rule="nonzero" points="112.429 68 118.239 68 118.239 66.39 114.151 66.39 114.151 63.856 117.679 63.856 117.679 62.246 114.151 62.246 114.151 59.81 118.099 59.81 118.099 58.2 112.429 58.2"></polygon>
            <path d="M129.861,68 C130.435,68 131.275,68.056 132.409,68.056 C134.817,68.056 136.189,66.894 136.189,64.864 C136.189,63.058 134.943,61.91 132.899,61.91 C132.549,61.91 131.961,61.938 131.583,61.994 L131.583,59.81 L135.587,59.81 L135.587,58.2 L129.861,58.2 L129.861,68 Z M132.759,63.52 C133.963,63.52 134.481,64.15 134.481,64.99 C134.481,65.858 133.949,66.446 132.675,66.446 C132.311,66.446 131.975,66.418 131.583,66.39 L131.583,63.604 C132.017,63.548 132.437,63.52 132.759,63.52 Z" id="Shape" fill="#344150" fill-rule="nonzero"></path>
            <path d="M154.645,65.76 C153.973,66.278 153.147,66.544 152.321,66.544 C150.319,66.544 148.933,65.144 148.933,63.1 C148.933,60.972 150.305,59.656 152.125,59.656 C153.105,59.656 153.749,59.922 154.337,60.314 L155.107,59.04 C154.463,58.452 153.399,58.046 152.125,58.046 C148.891,58.046 147.113,60.286 147.113,63.1 C147.113,66.152 149.171,68.154 152.167,68.154 C153.441,68.154 154.687,67.706 155.303,67.048 L154.645,65.76 Z" id="Shape" fill="#344150" fill-rule="nonzero"></path>
            <path d="M165.053,68 L166.789,68 L167.811,65.494 L171.997,65.494 L173.019,68 L174.853,68 L170.709,58.172 L169.197,58.172 L165.053,68 Z M169.911,60.398 L171.339,63.884 L168.469,63.884 L169.911,60.398 Z" id="Shape" fill="#344150" fill-rule="nonzero"></path>
            <path d="M187.213,68 L192.351,61.042 L192.351,68 L194.073,68 L194.073,58.2 L192.561,58.2 L187.423,65.172 L187.423,58.2 L185.701,58.2 L185.701,68 L187.213,68 Z M187.255,55.82 C187.353,57.01 188.375,57.822 190.055,57.822 C191.595,57.822 192.743,57.024 192.785,55.82 L191.175,55.82 C191.119,56.422 190.685,56.632 190.055,56.632 C189.355,56.632 188.977,56.366 188.865,55.82 L187.255,55.82 Z" id="Shape" fill="#344150" fill-rule="nonzero"></path>
            <polygon id="Shape" fill="#344150" fill-rule="nonzero" points="204.95 59.81 208.128 59.81 208.128 68 209.85 68 209.85 59.81 213.028 59.81 213.028 58.2 204.95 58.2"></polygon>
            <rect id="Rectangle-path" fill-opacity="0" fill="#000000" fill-rule="nonzero" x="0.05" y="0" width="74" height="74"></rect>
            <rect id="Rectangle-path" stroke="#D0DFF1" stroke-width="2" x="1.05" y="1" width="72" height="72" rx="9"></rect>
            <rect id="Rectangle-path" fill-opacity="0" fill="#000000" fill-rule="nonzero" x="15.05" y="15" width="44" height="44"></rect>
            <rect id="Rectangle-path" fill-opacity="0" fill="#000000" fill-rule="nonzero" x="19.05" y="19" width="35.1303" height="35.1408"></rect>
            <rect id="Rectangle-path" fill-opacity="0" fill="#000000" fill-rule="nonzero" x="19.05" y="19" width="35.1303" height="35.1408"></rect>
            <path d="M50.976,40.2349 C47.973,43.2378 44.939,45.159 42.266,46.3983 L42.937,49.0859 C43.089,49.6908 43.538,50.1785 44.128,50.3783 C44.323,50.4443 44.519,50.4755 44.715,50.4755 C45.127,50.4755 45.531,50.338 45.861,50.074 C51.982,45.1774 52.978,40.8454 52.738,38.0478 C52.226,38.816 51.654,39.5566 50.976,40.2349 Z" id="Shape" fill="#1E86FF" fill-rule="nonzero"></path>
            <path d="M22.273,32.0861 L25.932,33.0027 C27.071,29.8935 29.144,26.0308 32.958,22.2158 C33.577,21.5962 34.252,21.0719 34.951,20.5879 C31.973,20.5604 27.232,22.0288 21.309,29.1345 C20.904,29.6185 20.777,30.2785 20.971,30.878 C21.169,31.4774 21.661,31.9339 22.273,32.0861 Z" id="Shape" fill="#1E86FF" fill-rule="nonzero"></path>
            <path d="M53.858,20.8409 C53.729,20.0691 53.124,19.4641 52.351,19.3339 C49.243,18.7986 39.547,18.2211 34.254,23.5119 C28.131,29.635 26.776,35.7856 26.473,38.2953 L20.064,41.4998 C19.538,41.7657 19.169,42.2661 19.074,42.8473 C18.979,43.4303 19.171,44.0206 19.587,44.4367 L28.754,53.603 C29.152,54.0008 29.727,54.2135 30.343,54.1182 C30.925,54.0228 31.425,53.6543 31.689,53.1282 L34.894,46.7173 C37.405,46.4166 43.556,45.06 49.678,38.937 C55.777,32.8414 53.94,21.3285 53.858,20.8409 Z M44.717,28.4746 C43.705,28.4746 42.883,27.6551 42.883,26.6413 C42.883,25.6293 43.705,24.808 44.717,24.808 C45.731,24.808 46.55,25.6293 46.55,26.6413 C46.55,27.6551 45.731,28.4746 44.717,28.4746 Z" id="Shape" fill="#1E86FF" fill-rule="nonzero"></path>
        </g>
    </g>
</svg>